<?xml version="1.0" encoding="utf-8"?>
<!-- Generator: Adobe Illustrator 18.1.0, SVG Export Plug-In . SVG Version: 6.00 Build 0)  -->
<svg version="1.1" id="Layer_1" xmlns="http://www.w3.org/2000/svg" xmlns:xlink="http://www.w3.org/1999/xlink" x="0px" y="0px"
	 viewBox="0 0 1500 1500" enable-background="new 0 0 1500 1500" xml:space="preserve">
<g>
	<path fill="#00A8DE" d="M1278.5,984.1c2-6.8,3.5-13.8,3.5-21.2V340.2c0-42.5-34-76.9-76.5-76.9c-42.5,0-76.5,34.4-76.5,76.9v396.5
		c-30-12.5-45-23.9-61-34V175.3c0-42.5-33.5-76.9-76-76.9c-42.5,0-76,34.5-76,76.9v475.2c-16-3.2-46-5-61-5.5V120.3
		c0-42.5-34-76.9-76.5-76.9c-42.5,0-76.5,34.4-76.5,76.9v545.8c-31,6.3-46,14-61,22.9V233.7c0-42.5-34-76.9-76.5-76.9
		c-42.5,0-76.5,34.4-76.5,76.9V810c-15,18.6-28.5,38.3-39.3,59.1l-86.1-112.6c-35.2-46.2-101.9-54.8-148.8-19.2
		c-46.9,35.6-56.5,102-21.3,148.3l210.8,277.3c7.1,9.3,15.4,17,24.5,23.1c56.5,156.4,223.2,269.6,416.5,269.6
		c240.1,0,437.6-174.4,437.6-389.6v-31.7C1282,1017.3,1280.8,1000.6,1278.5,984.1z M471.5,1028.7c0,0,161.1-221.2,360.5-226.7
		c183-8.2,363.2,150.2,398.7,237.6C1230.7,1042.3,911.2,1566.7,471.5,1028.7z"/>
	<path fill="#27628E" d="M832,802c-199.4,5.5-360.5,226.7-360.5,226.7c439.7,538,759.2,13.7,759.2,10.9
		C1195.2,952.2,1014.9,793.8,832,802z M860.6,1206.7c-98.8,0-178.9-79.7-178.9-178.5s80.1-176.5,178.9-176.5
		c77,0,142.4,42.3,167.6,119.3H992v107h40C1010.1,1154,941.7,1206.7,860.6,1206.7z"/>
	<path fill="#FFFFFE" d="M992,1078V971h36.3c-25.2-77-90.6-119.1-167.6-119.1c-98.8,0-178.9,79-178.9,177.8
		c0,98.8,80.1,177.5,178.9,177.5c81.1,0,149.5-53.3,171.4-129.3H992z M860.6,1122.9c-52,0-94.2-42.2-94.2-94.2
		c0-52,42.2-94.2,94.2-94.2c52,0,94.2,42.2,94.2,94.2C954.9,1080.7,912.7,1122.9,860.6,1122.9z"/>
	<path fill="#27628E" d="M860.6,934.5c-52,0-94.2,42.2-94.2,94.2c0,52,42.2,94.2,94.2,94.2c52,0,94.2-42.2,94.2-94.2
		C954.9,976.6,912.7,934.5,860.6,934.5z"/>
</g>
</svg>
